<?xml version="1.0" encoding="UTF-8" standalone="no"?>
<!-- Generator: Adobe Illustrator 21.1.0, SVG Export Plug-In . SVG Version: 6.00 Build 0)  -->

<svg
   version="1.1"
   id="Layer_1"
   x="0px"
   y="0px"
   viewBox="0 0 717 277"
   xml:space="preserve"
   sodipodi:docname="periodic table.svg"
   width="717"
   height="277"
   inkscape:version="1.3 (0e150ed6c4, 2023-07-21)"
   inkscape:export-filename="periodic table.pdf"
   inkscape:export-xdpi="84"
   inkscape:export-ydpi="84"
   xmlns:inkscape="http://www.inkscape.org/namespaces/inkscape"
   xmlns:sodipodi="http://sodipodi.sourceforge.net/DTD/sodipodi-0.dtd"
   xmlns="http://www.w3.org/2000/svg"
   xmlns:svg="http://www.w3.org/2000/svg"><defs
   id="defs386">&#10;	&#10;	&#10;	&#10;	&#10;	&#10;	&#10;&#10;		&#10;		&#10;		&#10;		&#10;		&#10;		&#10;		&#10;		&#10;		&#10;		&#10;		&#10;	&#10;		&#10;		&#10;		&#10;		&#10;		&#10;		&#10;		&#10;		&#10;		&#10;		&#10;		&#10;		&#10;		&#10;		&#10;		&#10;		&#10;		&#10;		&#10;		&#10;		&#10;		&#10;		&#10;		&#10;		&#10;		&#10;		&#10;		&#10;	&#10;			&#10;			&#10;			&#10;			&#10;			&#10;			&#10;			&#10;			&#10;			&#10;			&#10;			&#10;			&#10;			&#10;			&#10;			&#10;			&#10;			&#10;			&#10;			&#10;			&#10;			&#10;			&#10;			&#10;			&#10;			&#10;			&#10;			&#10;			&#10;			&#10;			&#10;			&#10;			&#10;			&#10;			&#10;			&#10;			&#10;			&#10;			&#10;			&#10;			&#10;			&#10;			&#10;			&#10;			&#10;			&#10;			&#10;			&#10;			&#10;			&#10;			&#10;			&#10;			&#10;			&#10;			&#10;			&#10;			&#10;			&#10;			&#10;			&#10;			&#10;			&#10;			&#10;			&#10;			&#10;			&#10;			&#10;			&#10;			&#10;			&#10;			&#10;			&#10;			&#10;			&#10;			&#10;			&#10;			&#10;			&#10;			&#10;			&#10;			&#10;			&#10;			&#10;			&#10;			&#10;			&#10;			&#10;			&#10;			&#10;			&#10;			&#10;			&#10;			&#10;			&#10;			&#10;			&#10;			&#10;			&#10;			&#10;			&#10;			&#10;			&#10;			&#10;			&#10;			&#10;			&#10;			&#10;			&#10;			&#10;			&#10;			&#10;			&#10;			&#10;			&#10;			&#10;			&#10;			&#10;			&#10;			&#10;			&#10;			&#10;			&#10;			&#10;			&#10;			&#10;			&#10;			&#10;			&#10;			&#10;			&#10;			&#10;			&#10;			&#10;			&#10;			&#10;			&#10;			&#10;			&#10;			&#10;			&#10;			&#10;			&#10;			&#10;			&#10;			&#10;			&#10;			&#10;			&#10;			&#10;			&#10;			&#10;			&#10;			&#10;			&#10;			&#10;			&#10;			&#10;			&#10;			&#10;			&#10;			&#10;			&#10;			&#10;			&#10;			&#10;			&#10;			&#10;			&#10;			&#10;			&#10;			&#10;			&#10;			&#10;			&#10;			&#10;			&#10;			&#10;			&#10;			&#10;			&#10;			&#10;			&#10;			&#10;			&#10;			&#10;			&#10;			&#10;			&#10;			&#10;			&#10;			&#10;			&#10;			&#10;			&#10;			&#10;			&#10;			&#10;			&#10;			&#10;			&#10;			&#10;			&#10;			&#10;			&#10;			&#10;			&#10;			&#10;			&#10;			&#10;			&#10;			&#10;			&#10;			&#10;			&#10;			&#10;			&#10;			&#10;			&#10;			&#10;			&#10;			&#10;			&#10;			&#10;			&#10;			&#10;			&#10;			&#10;			&#10;			&#10;			&#10;			&#10;			&#10;			&#10;			&#10;			&#10;			&#10;			&#10;			&#10;			&#10;		&#10;			&#10;			&#10;			&#10;			&#10;			&#10;			&#10;			&#10;			&#10;			&#10;			&#10;			&#10;			&#10;			&#10;			&#10;			&#10;			&#10;			&#10;			&#10;			&#10;			&#10;			&#10;			&#10;			&#10;			&#10;			&#10;			&#10;			&#10;			&#10;			&#10;			&#10;			&#10;			&#10;			&#10;			&#10;			&#10;		&#10;			&#10;			&#10;			&#10;			&#10;			&#10;			&#10;			&#10;		</defs><sodipodi:namedview
   id="namedview386"
   pagecolor="#ffffff"
   bordercolor="#000000"
   borderopacity="0.25"
   inkscape:showpageshadow="2"
   inkscape:pageopacity="0.0"
   inkscape:pagecheckerboard="0"
   inkscape:deskcolor="#d1d1d1"
   inkscape:zoom="1.31875"
   inkscape:cx="357.1564"
   inkscape:cy="204.36019"
   inkscape:window-width="1920"
   inkscape:window-height="1011"
   inkscape:window-x="0"
   inkscape:window-y="0"
   inkscape:window-maximized="1"
   inkscape:current-layer="Layer_1" />&#10;<style
   type="text/css"
   id="style1">&#10;	.st0{fill:#FFFFFF;}&#10;	.st1{fill:#FFFFFF;stroke:#000000;}&#10;	.st2{font-family:'ArialMT';}&#10;	.st3{font-size:12px;}&#10;	.st4{font-size:14px;}&#10;</style>&#10;<path
   class="st0"
   d="m 80.5,276.5 v -36 h 36 v 36 z"
   id="path1" /><path
   class="st0"
   d="m 80.5,236.5 v -36 h 36 v 36 z"
   id="path2" /><g
   id="Unclass"
   transform="translate(320.5,276.5)">&#10;			<path
   class="st1"
   d="M 0,0 V -36 H 36 V 0 Z"
   id="path3" />&#10;			<path
   class="st1"
   d="M 40,0 V -36 H 76 V 0 Z"
   id="path4" />&#10;			<path
   class="st1"
   d="m 80,0 v -36 h 36 V 0 Z"
   id="path5" />&#10;			<path
   class="st1"
   d="m 160,0 v -36 h 36 V 0 Z"
   id="path6" />&#10;			<path
   class="st1"
   d="m 200,0 v -36 h 36 V 0 Z"
   id="path7" />&#10;			<path
   class="st1"
   d="m 240,0 v -36 h 36 V 0 Z"
   id="path8" />&#10;			<path
   class="st1"
   d="m 280,0 v -36 h 36 V 0 Z"
   id="path9" />&#10;			<path
   class="st1"
   d="m 320,0 v -36 h 36 V 0 Z"
   id="path10" />&#10;			<path
   class="st1"
   d="m 360,0 v -36 h 36 V 0 Z"
   id="path11" />&#10;		</g><path
   class="st1"
   d="M 0.5,36.5 V 0.50000002 h 36 V 36.5 Z"
   id="path12" /><path
   class="st1"
   d="m 600.5,156.5 v -36 h 36 v 36 z"
   id="path13" /><path
   class="st1"
   d="m 560.5,116.5 v -36 h 36 v 36 z"
   id="path14"
   style="fill:#9aa0a7;fill-opacity:1" /><path
   class="st1"
   d="m 600.5,116.5 v -36 h 36 v 36 z"
   id="path15"
   style="fill:#9aa0a7;fill-opacity:1" /><path
   class="st1"
   d="m 520.5,76.5 v -36 h 36 v 36 z"
   id="path16" /><path
   class="st1"
   d="m 560.5,76.5 v -36 h 36 v 36 z"
   id="path17" /><path
   class="st1"
   d="m 600.5,76.5 v -36 h 36 v 36 z"
   id="path18" /><g
   id="AlkaliMetals"
   transform="translate(0.5,-110.5)">&#10;			<path
   class="st1"
   d="m 0,387 v -36 h 36 v 36 z"
   id="path19" />&#10;			<path
   class="st1"
   d="m 0,347 v -36 h 36 v 36 z"
   id="path20" />&#10;			<path
   class="st1"
   d="m 0,267 v -36 h 36 v 36 z"
   id="path21" />&#10;			<path
   class="st1"
   d="m 0,227 v -36 h 36 v 36 z"
   id="path22" />&#10;			<path
   class="st1"
   d="m 0,187 v -36 h 36 v 36 z"
   id="path23" />&#10;			<path
   class="st1"
   d="m 0,307 v -36 h 36 v 36 z"
   id="path24" />&#10;		</g><g
   id="EarthMetals"
   transform="translate(40.5,76.5)">&#10;			<path
   class="st1"
   d="M 0,0 V -36 H 36 V 0 Z"
   id="path25" />&#10;			<path
   class="st1"
   d="M 0,40 V 4 h 36 v 36 z"
   id="path26" />&#10;			<path
   class="st1"
   d="M 0,80 V 44 h 36 v 36 z"
   id="path27" />&#10;			<path
   class="st1"
   d="M 0,120 V 84 h 36 v 36 z"
   id="path28" />&#10;			<path
   class="st1"
   d="m 0,160 v -36 h 36 v 36 z"
   id="path29" />&#10;			<path
   class="st1"
   d="m 0,200 v -36 h 36 v 36 z"
   id="path30" />&#10;		</g><g
   id="SemiMetals"
   transform="translate(-63.5,-110.5)">&#10;			<path
   class="st1"
   d="m 544,187 v -36 h 36 v 36 z"
   id="path31" />&#10;			<path
   class="st1"
   d="m 584,227 v -36 h 36 v 36 z"
   id="path32" />&#10;			<path
   class="st1"
   d="m 584,267 v -36 h 36 v 36 z"
   id="path33" />&#10;			<path
   class="st1"
   d="m 624,267 v -36 h 36 v 36 z"
   id="path34" />&#10;			<path
   class="st1"
   d="m 624,307 v -36 h 36 v 36 z"
   id="path35" />&#10;			<path
   class="st1"
   d="m 664,307 v -36 h 36 v 36 z"
   id="path36" />&#10;			<path
   class="st1"
   d="m 664,347 v -36 h 36 v 36 z"
   id="path37" />&#10;		</g><g
   id="Halogens"
   transform="translate(640.5,76.5)">&#10;			<path
   class="st1"
   d="M 0,0 V -36 H 36 V 0 Z"
   id="path38" />&#10;			<path
   class="st1"
   d="M 0,40 V 4 h 36 v 36 z"
   id="path39" />&#10;			<path
   class="st1"
   d="M 0,80 V 44 h 36 v 36 z"
   id="path40" />&#10;			<path
   class="st1"
   d="M 0,120 V 84 h 36 v 36 z"
   id="path41" />&#10;			<path
   class="st1"
   d="m 0,160 v -36 h 36 v 36 z"
   id="path42" />&#10;		</g><g
   id="InertGases"
   transform="translate(680.5,36.5)">&#10;			<path
   class="st1"
   d="M 0,0 V -36 H 36 V 0 Z"
   id="path43" />&#10;			<path
   class="st1"
   d="M 0,40 V 4 h 36 v 36 z"
   id="path44" />&#10;			<path
   class="st1"
   d="M 0,80 V 44 h 36 v 36 z"
   id="path45" />&#10;			<path
   class="st1"
   d="M 0,120 V 84 h 36 v 36 z"
   id="path46" />&#10;			<path
   class="st1"
   d="m 0,160 v -36 h 36 v 36 z"
   id="path47" />&#10;			<path
   class="st1"
   d="m 0,200 v -36 h 36 v 36 z"
   id="path48" />&#10;		</g><g
   id="PTMetals"
   transform="translate(-63.5,-110.5)">&#10;			<path
   class="st1"
   d="m 544,227 v -36 h 36 v 36 z"
   id="path49" />&#10;			<path
   class="st1"
   d="m 544,267 v -36 h 36 v 36 z"
   id="path50" />&#10;			<path
   class="st1"
   d="m 544,307 v -36 h 36 v 36 z"
   id="path51" />&#10;			<path
   class="st1"
   d="m 544,347 v -36 h 36 v 36 z"
   id="path52" />&#10;			<path
   class="st1"
   d="m 584,307 v -36 h 36 v 36 z"
   id="path53" />&#10;			<path
   class="st1"
   d="m 584,347 v -36 h 36 v 36 z"
   id="path54" />&#10;			<path
   class="st1"
   d="m 624,347 v -36 h 36 v 36 z"
   id="path55" />&#10;		</g><path
   class="st1"
   d="m 120.5,276.5 v -36 h 36 v 36 z"
   id="path56" /><path
   class="st1"
   d="m 160.5,276.5 v -36 h 36 v 36 z"
   id="path57" /><path
   class="st1"
   d="m 200.5,276.5 v -36 h 36 v 36 z"
   id="path58" /><path
   class="st1"
   d="m 240.5,276.5 v -36 h 36 v 36 z"
   id="path59" /><path
   class="st1"
   d="m 280.5,276.5 v -36 h 36 v 36 z"
   id="path60" /><path
   class="st1"
   d="m 440.5,276.5 v -36 h 36 v 36 z"
   id="path61" /><path
   class="st1"
   d="m 120.5,236.5 v -36 h 36 v 36 z"
   id="path62" /><path
   class="st1"
   d="m 160.5,236.5 v -36 h 36 v 36 z"
   id="path63" /><path
   class="st1"
   d="m 200.5,236.5 v -36 h 36 v 36 z"
   id="path64" /><path
   class="st1"
   d="m 240.5,236.5 v -36 h 36 v 36 z"
   id="path65" /><path
   class="st1"
   d="m 280.5,236.5 v -36 h 36 v 36 z"
   id="path66" /><path
   class="st1"
   d="m 320.5,236.5 v -36 h 36 v 36 z"
   id="path67" /><path
   class="st1"
   d="m 360.5,236.5 v -36 h 36 v 36 z"
   id="path68" /><path
   class="st1"
   d="m 400.5,236.5 v -36 h 36 v 36 z"
   id="path69" /><path
   class="st1"
   d="m 440.5,236.5 v -36 h 36 v 36 z"
   id="path70" /><path
   class="st1"
   d="m 80.5,196.5 v -36 h 36 v 36 z"
   id="path71" /><path
   class="st1"
   d="m 120.5,196.5 v -36 h 36 v 36 z"
   id="path72" /><path
   class="st1"
   d="m 160.5,196.5 v -36 h 36 v 36 z"
   id="path73" /><path
   class="st1"
   d="m 200.5,196.5 v -36 h 36 v 36 z"
   id="path74" /><path
   class="st1"
   d="m 240.5,196.5 v -36 h 36 v 36 z"
   id="path75" /><path
   class="st1"
   d="m 280.5,196.5 v -36 h 36 v 36 z"
   id="path76" /><path
   class="st1"
   d="m 320.5,196.5 v -36 h 36 v 36 z"
   id="path77" /><path
   class="st1"
   d="m 360.5,196.5 v -36 h 36 v 36 z"
   id="path78" /><path
   class="st1"
   d="m 400.5,196.5 v -36 h 36 v 36 z"
   id="path79" /><path
   class="st1"
   d="m 440.5,196.5 v -36 h 36 v 36 z"
   id="path80" /><path
   class="st1"
   d="m 80.5,156.5 v -36 h 36 v 36 z"
   id="path81" /><path
   class="st1"
   d="m 120.5,156.5 v -36 h 36 v 36 z"
   id="path82" /><path
   class="st1"
   d="m 160.5,156.5 v -36 h 36 v 36 z"
   id="path83" /><path
   class="st1"
   d="m 200.5,156.5 v -36 h 36 v 36 z"
   id="path84"
   style="fill:#59c7eb;fill-opacity:1;stroke:#000000;stroke-opacity:1" /><path
   class="st1"
   d="m 240.5,156.5 v -36 h 36 v 36 z"
   id="path85"
   style="fill:#59c7eb;fill-opacity:0.995767" /><path
   class="st1"
   d="m 280.5,156.5 v -36 h 36 v 36 z"
   id="path86"
   style="fill:#59c7eb;fill-opacity:0.886275" /><path
   class="st1"
   d="m 320.5,156.5 v -36 h 36 v 36 z"
   id="path87" /><path
   class="st1"
   d="m 360.5,156.5 v -36 h 36 v 36 z"
   id="path88"
   style="fill:#59c7eb;fill-opacity:0.886275" /><path
   class="st1"
   d="m 400.5,156.5 v -36 h 36 v 36 z"
   id="path89" /><path
   class="st1"
   d="m 440.5,156.5 v -36 h 36 v 36 z"
   id="path90" /><text
   class="st2 st3"
   id="text145"
   x="695.16309"
   y="14.5">2</text><text
   class="st2 st3"
   id="text146"
   x="15.163101"
   y="14.5">1</text><text
   class="st2 st3"
   id="text147"
   x="690.83008"
   y="30.5">He</text><text
   class="st2 st3"
   id="text148"
   x="14.167"
   y="30.5">H</text><text
   class="st2 st3"
   id="text149"
   x="55.163101"
   y="54.5">4</text><text
   class="st2 st3"
   id="text150"
   x="495.16309"
   y="54.5">5</text><text
   class="st2 st3"
   id="text151"
   x="535.16309"
   y="54.5">6</text><text
   class="st2 st3"
   id="text152"
   x="575.16309"
   y="54.5">7</text><text
   class="st2 st3"
   id="text153"
   x="615.16309"
   y="54.5">8</text><text
   class="st2 st3"
   id="text154"
   x="655.16309"
   y="54.5">9</text><text
   class="st2 st3"
   id="text155"
   x="691.82617"
   y="54.5">10</text><text
   class="st2 st3"
   id="text156"
   x="15.163101"
   y="54.5">3</text><text
   class="st2 st3"
   id="text157"
   x="51.161102"
   y="70.5">Be</text><text
   class="st2 st3"
   id="text158"
   x="494.49799"
   y="70.5">B</text><text
   class="st2 st3"
   id="text159"
   x="534.16699"
   y="70.5">C</text><text
   class="st2 st3"
   id="text160"
   x="574.16699"
   y="70.5">N</text><text
   class="st2 st3"
   id="text161"
   x="613.83301"
   y="70.5">O</text><text
   class="st2 st3"
   id="text162"
   x="654.83502"
   y="70.5">F</text><text
   class="st2 st3"
   id="text163"
   x="690.83008"
   y="70.5">Ne</text><text
   class="st2 st3"
   id="text164"
   x="13.830101"
   y="70.5">Li</text><text
   class="st2 st3"
   id="text165"
   x="51.826202"
   y="94.5">12</text><text
   class="st2 st3"
   id="text166"
   x="491.82617"
   y="94.5">13</text><text
   class="st2 st3"
   id="text167"
   x="531.82617"
   y="94.5">14</text><text
   class="st2 st3"
   id="text168"
   x="571.82617"
   y="94.5">15</text><text
   class="st2 st3"
   id="text169"
   x="611.82617"
   y="94.5">16</text><text
   class="st2 st3"
   id="text170"
   x="651.82617"
   y="94.5">17</text><text
   class="st2 st3"
   id="text171"
   x="691.82617"
   y="94.5">18</text><text
   class="st2 st3"
   id="text172"
   x="12.2715"
   y="94.5">11</text><text
   class="st2 st3"
   id="text173"
   x="50.165001"
   y="110.50001">Mg</text><text
   class="st2 st3"
   id="text174"
   x="493.16498"
   y="110.50001">Al</text><text
   class="st2 st3"
   id="text175"
   x="533.16498"
   y="110.50001">Si</text><text
   class="st2 st3"
   id="text176"
   x="574.49799"
   y="110.50001">P</text><text
   class="st2 st3"
   id="text177"
   x="614.49799"
   y="110.50001">S</text><text
   class="st2 st3"
   id="text178"
   x="652.83398"
   y="110.50001">Cl</text><text
   class="st2 st3"
   id="text179"
   x="692.5"
   y="110.50001">Ar</text><text
   class="st2 st3"
   id="text180"
   x="10.830101"
   y="110.50001">Na</text><text
   class="st2 st3"
   id="text181"
   x="51.826202"
   y="134.5">20</text><text
   class="st2 st3"
   id="text182"
   x="91.826202"
   y="134.5">21</text><text
   class="st2 st3"
   id="text183"
   x="131.8262"
   y="134.5">22</text><text
   class="st2 st3"
   id="text184"
   x="171.8262"
   y="134.5">23</text><text
   class="st2 st3"
   id="text185"
   x="211.8262"
   y="134.5">24</text><text
   class="st2 st3"
   id="text186"
   x="251.8262"
   y="134.5">25</text><text
   class="st2 st3"
   id="text187"
   x="291.8262"
   y="134.5">26</text><text
   class="st2 st3"
   id="text188"
   x="331.8262"
   y="134.5">27</text><text
   class="st2 st3"
   id="text189"
   x="371.8262"
   y="134.5">28</text><text
   class="st2 st3"
   id="text190"
   x="411.8262"
   y="134.5">29</text><text
   class="st2 st3"
   id="text191"
   x="451.82617"
   y="134.5">30</text><text
   class="st2 st3"
   id="text192"
   x="491.82617"
   y="134.5">31</text><text
   class="st2 st3"
   id="text193"
   x="531.82617"
   y="134.5">32</text><text
   class="st2 st3"
   id="text194"
   x="571.82617"
   y="134.5">33</text><text
   class="st2 st3"
   id="text195"
   x="611.82617"
   y="134.5">34</text><text
   class="st2 st3"
   id="text196"
   x="651.82617"
   y="134.5">35</text><text
   class="st2 st3"
   id="text197"
   x="691.82617"
   y="134.5">36</text><text
   class="st2 st3"
   id="text198"
   x="11.826202"
   y="134.5">19</text><text
   class="st2 st3"
   id="text199"
   x="50.830101"
   y="150.5">Ca</text><text
   class="st2 st3"
   id="text200"
   x="91.498001"
   y="150.5">Sc</text><text
   class="st2 st3"
   id="text201"
   x="133.72459"
   y="150.5">Ti</text><text
   class="st2 st3"
   id="text202"
   x="174.498"
   y="150.5">V</text><text
   class="st2 st3"
   id="text203"
   x="212.16891"
   y="150.5">Cr</text><text
   class="st2 st3"
   id="text204"
   x="250.16501"
   y="150.5">Mn</text><text
   class="st2 st3"
   id="text205"
   x="291.49799"
   y="150.5">Fe</text><text
   class="st2 st3"
   id="text206"
   x="330.83011"
   y="150.5">Co</text><text
   class="st2 st3"
   id="text207"
   x="372.83401"
   y="150.5">Ni</text><text
   class="st2 st3"
   id="text208"
   x="410.83011"
   y="150.5">Cu</text><text
   class="st2 st3"
   id="text209"
   x="451.49799"
   y="150.5">Zn</text><text
   class="st2 st3"
   id="text210"
   x="490.49609"
   y="150.5">Ga</text><text
   class="st2 st3"
   id="text211"
   x="530.49609"
   y="150.5">Ge</text><text
   class="st2 st3"
   id="text212"
   x="571.49799"
   y="150.5">As</text><text
   class="st2 st3"
   id="text213"
   x="611.16107"
   y="150.5">Se</text><text
   class="st2 st3"
   id="text214"
   x="652.5"
   y="150.5">Br</text><text
   class="st2 st3"
   id="text215"
   x="692.5"
   y="150.5">Kr</text><text
   class="st2 st3"
   id="text216"
   x="14.498"
   y="150.5">K</text><text
   class="st2 st3"
   id="text217"
   x="51.826202"
   y="174.5">38</text><text
   class="st2 st3"
   id="text218"
   x="91.826202"
   y="174.5">39</text><text
   class="st2 st3"
   id="text219"
   x="131.8262"
   y="174.5">40</text><text
   class="st2 st3"
   id="text220"
   x="171.8262"
   y="174.5">41</text><text
   class="st2 st3"
   id="text221"
   x="211.8262"
   y="174.5">42</text><text
   class="st2 st3"
   id="text222"
   x="251.8262"
   y="174.5">43</text><text
   class="st2 st3"
   id="text223"
   x="291.8262"
   y="174.5">44</text><text
   class="st2 st3"
   id="text224"
   x="331.8262"
   y="174.5">45</text><text
   class="st2 st3"
   id="text225"
   x="371.8262"
   y="174.5">46</text><text
   class="st2 st3"
   id="text226"
   x="411.8262"
   y="174.5">47</text><text
   class="st2 st3"
   id="text227"
   x="451.82617"
   y="174.5">48</text><text
   class="st2 st3"
   id="text228"
   x="491.82617"
   y="174.5">49</text><text
   class="st2 st3"
   id="text229"
   x="531.82617"
   y="174.5">50</text><text
   class="st2 st3"
   id="text230"
   x="571.82617"
   y="174.5">51</text><text
   class="st2 st3"
   id="text231"
   x="611.82617"
   y="174.5">52</text><text
   class="st2 st3"
   id="text232"
   x="651.82617"
   y="174.5">53</text><text
   class="st2 st3"
   id="text233"
   x="691.82617"
   y="174.5">54</text><text
   class="st2 st3"
   id="text234"
   x="11.826202"
   y="174.5">37</text><text
   class="st2 st3"
   id="text235"
   x="411.1611"
   y="190.5">Ag</text><text
   class="st2 st3"
   id="text236"
   x="52.5"
   y="190.5">Sr</text><text
   class="st2 st3"
   id="text237"
   x="94.498001"
   y="190.5">Y</text><text
   class="st2 st3"
   id="text238"
   x="132.8369"
   y="190.5">Zr</text><text
   class="st2 st3"
   id="text239"
   x="170.83009"
   y="190.5">Nb</text><text
   class="st2 st3"
   id="text240"
   x="210.16501"
   y="190.5">Mo</text><text
   class="st2 st3"
   id="text241"
   x="252.5"
   y="190.5">Tc</text><text
   class="st2 st3"
   id="text242"
   x="290.83011"
   y="190.5">Ru</text><text
   class="st2 st3"
   id="text243"
   x="330.83011"
   y="190.5">Rh</text><text
   class="st2 st3"
   id="text244"
   x="371.1611"
   y="190.5">Pd</text><text
   class="st2 st3"
   id="text245"
   x="450.83008"
   y="190.5">Cd</text><text
   class="st2 st3"
   id="text246"
   x="493.49609"
   y="190.5">In</text><text
   class="st2 st3"
   id="text247"
   x="531.16107"
   y="190.5">Sn</text><text
   class="st2 st3"
   id="text248"
   x="571.16107"
   y="190.5">Sb</text><text
   class="st2 st3"
   id="text249"
   x="612.16309"
   y="190.5">Te</text><text
   class="st2 st3"
   id="text250"
   x="656.83301"
   y="190.5">I</text><text
   class="st2 st3"
   id="text251"
   x="691.16107"
   y="190.5">Xe</text><text
   class="st2 st3"
   id="text252"
   x="10.830101"
   y="190.5">Rb</text><text
   class="st2 st3"
   id="text253"
   x="51.826202"
   y="214.5">56</text><text
   class="st2 st3"
   id="text254"
   x="131.8262"
   y="214.5">72</text><text
   class="st2 st3"
   id="text255"
   x="171.8262"
   y="214.5">73</text><text
   class="st2 st3"
   id="text256"
   x="211.8262"
   y="214.5">74</text><text
   class="st2 st3"
   id="text257"
   x="251.8262"
   y="214.5">75</text><text
   class="st2 st3"
   id="text258"
   x="291.8262"
   y="214.5">76</text><text
   class="st2 st3"
   id="text259"
   x="331.8262"
   y="214.5">77</text><text
   class="st2 st3"
   id="text260"
   x="371.8262"
   y="214.5">78</text><text
   class="st2 st3"
   id="text261"
   x="411.8262"
   y="214.5">79</text><text
   class="st2 st3"
   id="text262"
   x="451.82617"
   y="214.5">80</text><text
   class="st2 st3"
   id="text263"
   x="491.82617"
   y="214.5">81</text><text
   class="st2 st3"
   id="text264"
   x="531.82617"
   y="214.5">82</text><text
   class="st2 st3"
   id="text265"
   x="571.82617"
   y="214.5">83</text><text
   class="st2 st3"
   id="text266"
   x="611.82617"
   y="214.5">84</text><text
   class="st2 st3"
   id="text267"
   x="651.82617"
   y="214.5">85</text><text
   class="st2 st3"
   id="text268"
   x="691.82617"
   y="214.5">86</text><text
   class="st2 st3"
   id="text269"
   x="11.826202"
   y="214.5">55</text><text
   class="st2 st3"
   id="text270"
   x="51.161102"
   y="230.5">Ba</text><text
   class="st2 st3"
   id="text271"
   x="132.5"
   y="230.5">Hf</text><text
   class="st2 st3"
   id="text272"
   x="172.1631"
   y="230.5">Ta</text><text
   class="st2 st3"
   id="text273"
   x="212.83691"
   y="230.5">W</text><text
   class="st2 st3"
   id="text274"
   x="250.83011"
   y="230.5">Re</text><text
   class="st2 st3"
   id="text275"
   x="290.83301"
   y="230.5">Os</text><text
   class="st2 st3"
   id="text276"
   x="334.83499"
   y="230.5">Ir</text><text
   class="st2 st3"
   id="text277"
   x="372.83109"
   y="230.5">Pt</text><text
   class="st2 st3"
   id="text278"
   x="411.1611"
   y="230.5">Au</text><text
   class="st2 st3"
   id="text279"
   x="450.83008"
   y="230.5">Hg</text><text
   class="st2 st3"
   id="text280"
   x="493.50201"
   y="230.5">Tl</text><text
   class="st2 st3"
   id="text281"
   x="531.16107"
   y="230.5">Pb</text><text
   class="st2 st3"
   id="text282"
   x="573.16498"
   y="230.5">Bi</text><text
   class="st2 st3"
   id="text283"
   x="611.16107"
   y="230.5">Po</text><text
   class="st2 st3"
   id="text284"
   x="652.83112"
   y="230.5">At</text><text
   class="st2 st3"
   id="text285"
   x="690.83008"
   y="230.5">Rn</text><text
   class="st2 st3"
   id="text286"
   x="11.167"
   y="230.5">Cs</text><text
   class="st2 st3"
   id="text287"
   x="51.826202"
   y="254.5">88</text><text
   class="st2 st3"
   id="text288"
   x="128.4893"
   y="254.5">104</text><text
   class="st2 st3"
   id="text289"
   x="168.4893"
   y="254.5">105</text><text
   class="st2 st3"
   id="text290"
   x="208.48929"
   y="254.5">106</text><text
   class="st2 st3"
   id="text291"
   x="248.48929"
   y="254.5">107</text><text
   class="st2 st3"
   id="text292"
   x="288.48929"
   y="254.5">108</text><text
   class="st2 st3"
   id="text293"
   x="328.48929"
   y="254.5">109</text><text
   class="st2 st3"
   id="text294"
   x="368.9346"
   y="254.5">110</text><text
   class="st2 st3"
   id="text295"
   x="409.37991"
   y="254.5">111</text><text
   class="st2 st3"
   id="text296"
   x="448.9346"
   y="254.5">112</text><text
   class="st2 st3"
   id="text297"
   x="488.93457"
   y="254.5">113</text><text
   class="st2 st3"
   id="text298"
   x="528.93457"
   y="254.5">114</text><text
   class="st2 st3"
   id="text299"
   x="568.93457"
   y="254.5">115</text><text
   class="st2 st3"
   id="text300"
   x="608.93457"
   y="254.5">116</text><text
   class="st2 st3"
   id="text301"
   x="648.93457"
   y="254.5">117</text><text
   class="st2 st3"
   id="text302"
   x="688.93457"
   y="254.5">118</text><text
   class="st2 st3"
   id="text303"
   x="11.826202"
   y="254.5">87</text><text
   class="st2 st3"
   id="text304"
   x="211.1611"
   y="270.5">Sg</text><text
   class="st2 st3"
   id="text305"
   x="410.83011"
   y="270.5">Rg</text><text
   class="st2 st3"
   id="text306"
   x="533.49323"
   y="270.5">Fl</text><text
   class="st2 st3"
   id="text307"
   x="571.49323"
   y="270.5">Mc</text><text
   class="st2 st3"
   id="text308"
   x="50.830101"
   y="270.5">Ra</text><text
   class="st2 st3"
   id="text309"
   x="132.5"
   y="270.5">Rf</text><text
   class="st2 st3"
   id="text310"
   x="170.83009"
   y="270.5">Db</text><text
   class="st2 st3"
   id="text311"
   x="251.1611"
   y="270.5">Bh</text><text
   class="st2 st3"
   id="text312"
   x="291.16699"
   y="270.5">Hs</text><text
   class="st2 st3"
   id="text313"
   x="331.83499"
   y="270.5">Mt</text><text
   class="st2 st3"
   id="text314"
   x="371.16699"
   y="270.5">Ds</text><text
   class="st2 st3"
   id="text315"
   x="450.83008"
   y="270.5">Cn</text><text
   class="st2 st3"
   id="text316"
   x="491.16309"
   y="270.5">Nh</text><text
   class="st2 st3"
   id="text317"
   x="612.49323"
   y="270.5">Lv</text><text
   class="st2 st3"
   id="text318"
   x="652.83008"
   y="270.5">Ts</text><text
   class="st2 st3"
   id="text319"
   x="691.49323"
   y="270.5">Og</text><text
   class="st2 st3"
   id="text320"
   x="12.836899"
   y="270.5">Fr</text>&#10;</svg>
